<?xml version="1.0" encoding="UTF-8"?>
<!DOCTYPE svg PUBLIC "-//W3C//DTD SVG 1.1//EN" "http://www.w3.org/Graphics/SVG/1.1/DTD/svg11.dtd">
<svg xmlns="http://www.w3.org/2000/svg" version="1.1" width="469px" height="144px" style="shape-rendering:geometricPrecision; text-rendering:geometricPrecision; image-rendering:optimizeQuality; fill-rule:evenodd; clip-rule:evenodd" xmlns:xlink="http://www.w3.org/1999/xlink">
<g><path style="opacity:1" fill="#fefefe" d="M -0.5,-0.5 C 155.833,-0.5 312.167,-0.5 468.5,-0.5C 468.5,47.5 468.5,95.5 468.5,143.5C 312.167,143.5 155.833,143.5 -0.5,143.5C -0.5,95.5 -0.5,47.5 -0.5,-0.5 Z"/></g>
<g><path style="opacity:1" fill="#262222" d="M 50.5,8.5 C 59.1731,8.33358 67.8397,8.50025 76.5,9C 80.2765,9.59207 83.9431,10.5921 87.5,12C 88.2585,15.9496 87.5918,19.7829 85.5,23.5C 74.4736,19.7089 63.1403,18.5422 51.5,20C 35.6311,23.8689 25.7978,33.7022 22,49.5C 18.4811,91.8848 37.4811,108.885 79,100.5C 79.4998,90.172 79.6665,79.8387 79.5,69.5C 72.1667,69.5 64.8333,69.5 57.5,69.5C 57.5,65.8333 57.5,62.1667 57.5,58.5C 69.1667,58.5 80.8333,58.5 92.5,58.5C 92.8251,75.4105 92.4918,92.2439 91.5,109C 73.6691,115.157 55.6691,115.824 37.5,111C 18.6114,102.755 8.44471,88.2547 7,67.5C 5.47915,35.831 19.9792,16.1643 50.5,8.5 Z"/></g>
<g><path style="opacity:1" fill="#282422" d="M 107.5,17.5 C 131.148,34.8087 154.815,52.142 178.5,69.5C 155.081,82.9599 131.581,96.2932 108,109.5C 107.5,78.8351 107.333,48.1685 107.5,17.5 Z"/></g>
<g><path style="opacity:1" fill="#9c961b" d="M 113.5,27.5 C 112.167,51.8333 112.167,76.1667 113.5,100.5C 113.44,101.043 113.107,101.376 112.5,101.5C 111.167,76.5 111.167,51.5 112.5,26.5C 113.107,26.6236 113.44,26.9569 113.5,27.5 Z"/></g>
<g><path style="opacity:1" fill="#f1e919" d="M 113.5,27.5 C 132.471,41.324 151.471,55.1573 170.5,69C 151.767,80.0319 132.767,90.5319 113.5,100.5C 112.167,76.1667 112.167,51.8333 113.5,27.5 Z"/></g>
<g><path style="opacity:1" fill="#2e2a2a" d="M 312.5,53.5 C 318.206,53.1712 323.872,53.5046 329.5,54.5C 334.241,67.7222 338.574,81.0556 342.5,94.5C 362.503,94.6666 382.503,94.5 402.5,94C 405.706,87.7536 409.04,81.5869 412.5,75.5C 413.5,76 414.5,76.5 415.5,77C 412.741,82.4393 410.074,87.9393 407.5,93.5C 408.309,95.0709 408.643,96.7376 408.5,98.5C 385.5,98.5 362.5,98.5 339.5,98.5C 335.588,84.4285 330.922,70.7618 325.5,57.5C 321.366,56.5151 317.032,56.1818 312.5,56.5C 312.5,55.5 312.5,54.5 312.5,53.5 Z"/></g>
<g><path style="opacity:1" fill="#8e8c8c" d="M 312.5,53.5 C 312.5,54.5 312.5,55.5 312.5,56.5C 317.032,56.1818 321.366,56.5151 325.5,57.5C 320.833,57.5 316.167,57.5 311.5,57.5C 311.232,55.901 311.566,54.5676 312.5,53.5 Z"/></g>
<g><path style="opacity:1" fill="#686565" d="M 221.5,60.5 C 208.5,60.5 195.5,60.5 182.5,60.5C 182.5,62.1667 182.5,63.8333 182.5,65.5C 182.167,65.5 181.833,65.5 181.5,65.5C 181.5,63.5 181.5,61.5 181.5,59.5C 195.01,59.1711 208.344,59.5044 221.5,60.5 Z"/></g>
<g><path style="opacity:1" fill="#282525" d="M 228.5,59.5 C 236.228,59.1885 243.895,59.6885 251.5,61C 260.762,65.9219 262.929,73.0886 258,82.5C 255.766,84.6998 253.266,86.5331 250.5,88C 253.333,89.5 255.5,91.6667 257,94.5C 258.298,100.866 260.131,107.033 262.5,113C 259.901,113.769 257.401,113.602 255,112.5C 253.468,107.567 252.134,102.567 251,97.5C 250.208,95.4127 249.041,93.5793 247.5,92C 243.27,90.7101 238.936,90.2101 234.5,90.5C 234.5,98.1667 234.5,105.833 234.5,113.5C 232.167,113.5 229.833,113.5 227.5,113.5C 227.181,95.4234 227.514,77.4234 228.5,59.5 Z"/></g>
<g><path style="opacity:1" fill="#292525" d="M 284.5,59.5 C 304.393,57.2714 315.059,66.1047 316.5,86C 315.447,105.056 305.447,114.389 286.5,114C 273.009,109.151 266.676,99.4848 267.5,85C 267.813,72.8658 273.48,64.3658 284.5,59.5 Z"/></g>
<g><path style="opacity:1" fill="#272323" d="M 221.5,60.5 C 221.5,62.1667 221.5,63.8333 221.5,65.5C 216.167,65.5 210.833,65.5 205.5,65.5C 205.5,81.5 205.5,97.5 205.5,113.5C 203.167,113.5 200.833,113.5 198.5,113.5C 198.5,97.5 198.5,81.5 198.5,65.5C 193.167,65.5 187.833,65.5 182.5,65.5C 182.5,63.8333 182.5,62.1667 182.5,60.5C 195.5,60.5 208.5,60.5 221.5,60.5 Z"/></g>
<g><path style="opacity:1" fill="#292525" d="M 417.5,60.5 C 420.23,59.1834 423.063,59.1834 426,60.5C 429.912,68.6573 434.078,76.6573 438.5,84.5C 442.922,76.6573 447.088,68.6573 451,60.5C 453.737,59.3895 456.571,59.2228 459.5,60C 453.667,69.8333 447.833,79.6667 442,89.5C 441.5,97.4931 441.334,105.493 441.5,113.5C 439.167,113.5 436.833,113.5 434.5,113.5C 434.666,105.493 434.5,97.4931 434,89.5C 428.473,79.7708 422.973,70.1041 417.5,60.5 Z"/></g>
<g><path style="opacity:1" fill="#fafafa" d="M 234.5,64.5 C 239.248,64.2748 243.915,64.7748 248.5,66C 254.778,71.2451 255.111,76.9118 249.5,83C 244.599,84.3254 239.599,84.8254 234.5,84.5C 234.5,77.8333 234.5,71.1667 234.5,64.5 Z"/></g>
<g><path style="opacity:1" fill="#fbfbfb" d="M 287.5,64.5 C 298.245,63.4087 305.079,68.0753 308,78.5C 310.533,89.1748 308.033,98.3414 300.5,106C 286.532,111.063 278.032,106.23 275,91.5C 273.067,79.4193 277.233,70.4193 287.5,64.5 Z"/></g>
<g><path style="opacity:1" fill="#c8c8c8" d="M 181.5,65.5 C 181.833,65.5 182.167,65.5 182.5,65.5C 187.833,65.5 193.167,65.5 198.5,65.5C 198.5,81.5 198.5,97.5 198.5,113.5C 197.504,98.0089 197.17,82.3422 197.5,66.5C 191.974,66.8214 186.64,66.4881 181.5,65.5 Z"/></g>
<g><path style="opacity:1" fill="#2c2828" d="M 349.5,111.5 C 359.008,110.84 363.175,115.173 362,124.5C 359.081,130.025 354.581,131.858 348.5,130C 341.621,123.35 341.955,117.183 349.5,111.5 Z"/></g>
<g><path style="opacity:1" fill="#2f2b2b" d="M 395.5,112.5 C 406.253,112.997 409.753,118.33 406,128.5C 397.344,134.927 391.511,132.927 388.5,122.5C 388.548,117.468 390.882,114.134 395.5,112.5 Z"/></g>
<g><path style="opacity:1" fill="#f7f7f7" d="M 350.5,115.5 C 358.302,115.787 360.302,119.287 356.5,126C 347.051,126.866 345.051,123.366 350.5,115.5 Z"/></g>
<g><path style="opacity:1" fill="#f4f4f4" d="M 395.5,116.5 C 401.82,116.32 404.32,119.32 403,125.5C 399.255,129.566 395.922,129.233 393,124.5C 392.018,121.225 392.851,118.559 395.5,116.5 Z"/></g>
</svg>
